#!OML:ASF I:\Actors\actors\Patient Classification 2\Patient 1\Session 1\actor1.ASF
:FULLY-SPECIFIED
:DEGREES
94
root -1.15261 18.2189 5.08519 0.836155 -5.47692 -3.18229
lowerback 12.4276 0.802286 0.0973622
upperback 1.67399 1.09221 0.359487
thorax -5.21515 0.536492 0.139658
lowerneck -12.9473 0.121185 -2.06459
upperneck 14.0863 0.0739421 3.03833
head 6.40974 0.177227 1.31706
rclavicle 4.82053e-015 -7.55382e-015
rhumerus -10.1432 35.0377 -88.9631
rradius 74.3046
rwrist 30.6296
rhand -31.0701 -40.6326
rfingers 7.12502
rthumb -4.35082 -70.5679
lclavicle 4.82053e-015 -7.55382e-015
lhumerus -19.2213 -9.49743 100.031
lradius 67.8867
lwrist 68.7918
lhand -17.6481 -28.7471
lfingers 7.12502
lthumb 8.60995 1.05733
rfemur 10.0573 -0.204598 19.4497
rtibia -9.23652
rfoot -9.81947 -12.528
rtoes 4.62971
lfemur 14.8202 0.303186 -12.8892
ltibia -18.3244
lfoot -0.128852 16.6404
ltoes -13.9795
95
root -1.14823 18.2167 5.03565 0.988174 -5.24553 -3.17274
lowerback 12.946 0.69187 0.0986554
upperback 1.92163 0.940455 0.271526
thorax -5.23927 0.460499 0.0675091
lowerneck -13.3977 0.116594 -2.14518
upperneck 13.9983 0.066203 3.20018
head 6.45899 0.185814 1.38287
rclavicle -9.59136e-015 -1.19271e-015
rhumerus -6.03676 36.5528 -87.1213
rradius 71.8134
rwrist 31.1268
rhand -31.0778 -41.1317
rfingers 7.12502
rthumb -4.35825 -71.0669
lclavicle -9.59136e-015 -1.19271e-015
lhumerus -17.1223 -7.80919 100.859
lradius 67.0212
lwrist 71.9315
lhand -19.6599 -28.2134
lfingers 7.12502
lthumb 6.66809 1.66158
rfemur 10.3138 -0.43876 19.4513
rtibia -10.4268
rfoot -9.15749 -13.0564
rtoes 4.68628
lfemur 14.6763 0.717777 -12.8467
ltibia -18.9315
lfoot 0.636501 16.2617
ltoes -14.1995
96
root -1.14754 18.2131 4.99208 1.25721 -5.1056 -3.16558
lowerback 13.2814 0.58771 0.0750547
upperback 2.10008 0.791572 0.147871
thorax -5.23464 0.386451 -0.0256698
lowerneck -13.8045 0.152913 -2.10572
upperneck 13.9896 0.0966198 3.30493
head 6.52513 0.214518 1.41484
rclavicle -3.20043e-014 2.38542e-014
rhumerus -2.1146 37.9829 -85.2984
rradius 69.428
rwrist 31.5293
rhand -30.4989 -41.4551
rfingers 7.12502
rthumb -3.79922 -71.401
lclavicle -3.20043e-014 2.38542e-014
lhumerus -15.3117 -6.13892 101.647
lradius 66.5615
lwrist 76.1739
lhand -21.8879 -27.9187
lfingers 7.12502
lthumb 4.51697 2.01316
rfemur 10.409 -0.791096 19.4622
rtibia -11.5256
rfoot -8.33884 -13.42
rtoes 3.84112
lfemur 14.4675 1.4642 -12.7785
ltibia -19.5903
lfoot 1.57459 15.6263
ltoes -15.2407
97
root -1.14535 18.2084 4.9548 1.61976 -4.98671 -3.14558
lowerback 13.5085 0.487548 0.0936595
upperback 2.22965 0.651485 -0.0220202
thorax -5.22092 0.315871 -0.191317
lowerneck -14.1781 0.205131 -1.87866
upperneck 13.9409 0.127277 3.29703
head 6.5731 0.243528 1.37955
rclavicle 9.93923e-016 -7.95139e-015
rhumerus 1.23125 39.165 -83.7019
rradius 67.6364
rwrist 31.6085
rhand -30.2046 -41.4291
rfingers 7.12502
rthumb -3.515 -71.3799
lclavicle 9.93923e-016 -7.95139e-015
lhumerus -13.8259 -4.58923 102.462
lradius 66.5744
lwrist 80.6374
lhand -23.7502 -28.2347
lfingers 7.12502
lthumb 2.71863 1.72768
rfemur 10.3453 -1.04089 19.4605
rtibia -12.4746
rfoot -7.6131 -13.7872
rtoes 2.85717
lfemur 14.1849 2.18867 -12.7577
ltibia -20.2354
lfoot 2.4475 15.0116
ltoes -16.1343
98
root -1.13543 18.1989 4.92858 1.80236 -4.86122 -3.12599
lowerback 13.8871 0.37388 0.274509
upperback 2.41623 0.513906 -0.250614
thorax -5.22891 0.243473 -0.511389
lowerneck -14.6175 0.239876 -1.64435
upperneck 13.7792 0.122857 3.35557
head 6.59703 0.261774 1.36065
rclavicle -1.0138e-014 1.90833e-014
rhumerus 3.63645 39.8804 -82.8332
rradius 66.5852
rwrist 31.9157
rhand -30.3369 -41.1493
rfingers 7.12502
rthumb -3.64276 -71.0979
lclavicle -1.0138e-014 1.90833e-014
lhumerus -12.6384 -3.46979 103.271
lradius 66.8384
lwrist 83.4698
lhand -24.6111 -28.8408
lfingers 7.12502
lthumb 1.88715 1.13063
rfemur 10.4715 -1.13257 19.4023
rtibia -13.3545
rfoot -7.08443 -14.214
rtoes 2.6522
lfemur 14.1343 2.41741 -12.8216
ltibia -20.8486
lfoot 3.03385 14.8398
ltoes -16.342
